<svg xmlns="http://www.w3.org/2000/svg" xmlns:xlink="http://www.w3.org/1999/xlink" width="302" height="369" viewBox="0 0 302 369">
  <defs>
    <filter id="Rectangle" x="-3" y="-6" width="306" height="378" filterUnits="userSpaceOnUse">
      <feOffset dy="3" input="SourceAlpha"/>
      <feGaussianBlur stdDeviation="3" result="blur"/>
      <feFlood flood-opacity="0.161"/>
      <feComposite operator="in" in2="blur"/>
      <feComposite in="SourceGraphic"/>
    </filter>
    <filter id="Rectangle-2" x="-814" y="7904" width="306" height="378" filterUnits="userSpaceOnUse">
      <feOffset dy="3" input="SourceAlpha"/>
      <feGaussianBlur stdDeviation="3" result="blur-2"/>
      <feFlood flood-opacity="0.161"/>
      <feComposite operator="in" in2="blur-2"/>
      <feComposite in="SourceGraphic"/>
    </filter>
    <filter id="Rectangle-3" x="-1463" y="7895" width="306" height="378" filterUnits="userSpaceOnUse">
      <feOffset dy="3" input="SourceAlpha"/>
      <feGaussianBlur stdDeviation="3" result="blur-3"/>
      <feFlood flood-opacity="0.161"/>
      <feComposite operator="in" in2="blur-3"/>
      <feComposite in="SourceGraphic"/>
    </filter>
    <clipPath id="clip-Add_to_Cart_1">
      <rect width="302" height="369"/>
    </clipPath>
  </defs>
  <g id="Add_to_Cart_1" data-name="Add to Cart – 1" clip-path="url(#clip-Add_to_Cart_1)">
    <rect width="302" height="369" fill="#fff"/>
    <g id="How_it_works" data-name="How it works" transform="translate(-1445 7803)">
      <text id="How_it_works-2" data-name="How it works" transform="translate(464 16)" fill="rgba(0,0,0,0.85)" font-size="48" font-family="Roboto-Bold, Roboto" font-weight="700" letter-spacing="0.006em"><tspan x="-141.361" y="0">How it works</tspan></text>
      <g id="How" transform="translate(1451 -7803)">
        <g transform="matrix(1, 0, 0, 1, -6, 0)" filter="url(#Rectangle)">
          <path id="Rectangle-4" data-name="Rectangle" d="M144,0h0A144,144,0,0,1,288,144V328a32,32,0,0,1-32,32H32A32,32,0,0,1,0,328V144A144,144,0,0,1,144,0Z" transform="translate(6)" fill="#feffff"/>
        </g>
        <g id="Ornament" transform="translate(96 56)">
          <path id="Ornament-2" data-name="Ornament" d="M15.751,76.459c-16.876-15.031-26-43.588,3.189-43.943a21.534,21.534,0,0,0,17.543-9.308c7.8-11.471,9.338-27.395,33.558-22.193C128.95,29.215,77.546,119.78,15.751,76.459Z" transform="translate(0 0)" fill="#dbf1d0"/>
        </g>
        <g id="Icon" transform="translate(114 46.667)">
          <path id="Combined_Shape" data-name="Combined Shape" d="M43.332,63.333V36.42c-10-1.6-10-10.665-10-18.087C33.333,8.052,39.189,0,46.665,0S60,8.052,60,18.333c0,7.422,0,16.49-10,18.087V63.333ZM46.665,30c6.1,0,6.669-2.061,6.669-11.667,0-6.876-3.513-11.667-6.669-11.667S40,11.457,40,18.333C40,27.939,40.575,30,46.665,30ZM10,63.333v-30H6.666A6.674,6.674,0,0,1,0,26.667V3.333H6.666V26.667H10V3.333h6.669V26.667H20V3.333h6.666V26.667A6.674,6.674,0,0,1,20,33.333H16.668v30Z" fill="#419a1f"/>
        </g>
      </g>
      <g id="How-2" data-name="How" transform="translate(640 107)">
        <g transform="matrix(1, 0, 0, 1, 805, -7910)" filter="url(#Rectangle-2)">
          <path id="Rectangle-5" data-name="Rectangle" d="M144,0h0A144,144,0,0,1,288,144V328a32,32,0,0,1-32,32H32A32,32,0,0,1,0,328V144A144,144,0,0,1,144,0Z" transform="translate(-805 7910)" fill="#feffff"/>
        </g>
        <text id="Description" transform="translate(28 209)" fill="rgba(0,0,0,0.85)" font-size="14" font-family="SegoeUI, Segoe UI" letter-spacing="0.021em"><tspan x="11.433" y="15">In the artist&apos;s own experience, of </tspan><tspan x="27.126" y="39">course, art is fundamentally </tspan><tspan x="16.614" y="63">indefinable, unsayable; there is </tspan><tspan x="28.493" y="87">something sacred about its </tspan></text>
        <text id="Title" transform="translate(28 171)" fill="#4ab421" font-size="18" font-family="SegoeUI, Segoe UI" letter-spacing="0.017em"><tspan x="91.238" y="19">Enjoy!</tspan></text>
        <g id="Ornament-3" data-name="Ornament" transform="translate(96 56)">
          <path id="Ornament-4" data-name="Ornament" d="M15.751,76.459c-16.876-15.031-26-43.588,3.189-43.943a21.534,21.534,0,0,0,17.543-9.308c7.8-11.471,9.338-27.395,33.558-22.193C128.95,29.215,77.546,119.78,15.751,76.459Z" transform="translate(0 0)" fill="#dbf1d0"/>
        </g>
        <g id="Icon-2" data-name="Icon" transform="translate(110.667 46.667)">
          <path id="Combined_Shape-2" data-name="Combined Shape" d="M13.071,63.333a10.1,10.1,0,0,1-8-4A26.434,26.434,0,0,1,0,43.332c0-11.514,8.148-22.905,18.951-26.5,5.286-1.755,14.052-1.218,19.14,1.176l-.061.129c2.657-2.844,6.071-6.11,10.585-5.407l1.91-2.866a5,5,0,1,1,5.861-6.525,3.334,3.334,0,0,1,1.028.074,5,5,0,1,1-.946,9.556l-2.006,3.009c3.463,4.212,1.156,10.636-.193,14.388-.249.7-.558,1.556-.751,2.2a22.89,22.89,0,0,0,5.605,5.738c2.418,1.794,4.134,3.42,4.2,8.04A19.736,19.736,0,0,1,57.8,59.538a11.522,11.522,0,0,1-8.175,3.795Zm7.983-40.167C12.987,25.842,6.666,34.7,6.666,43.332a19.962,19.962,0,0,0,3.72,11.982,3.35,3.35,0,0,0,2.685,1.353H49.626a5.391,5.391,0,0,0,3.426-1.809,12.991,12.991,0,0,0,3.609-8.412c-.024-1.683-.024-1.683-1.509-2.787-.462-.343-.986-.731-1.567-1.207a9.336,9.336,0,0,1-2.114,4.411C49.632,48.948,46.893,50,43.338,50l-.006-6.669h.009c1.071,0,2.487-.153,3.126-.879,1.089-1.236.675-4.536.429-6.507a23.285,23.285,0,0,1-.228-2.613A16.469,16.469,0,0,1,48,28.116c2.013-5.595,2.136-7.653.51-8.466-1.593-.789-2.637-.162-6.243,3.729-2.055,2.223-4.38,4.74-7.44,6.27-6.252,3.123-8.157,5.544-8.157,10.35A3.9,3.9,0,0,0,30,43.332V50A10.534,10.534,0,0,1,20,40c0-8.625,4.731-12.759,11.841-16.317a8.871,8.871,0,0,0,.866-.5,27.51,27.51,0,0,0-6.293-.711A17.85,17.85,0,0,0,21.054,23.166Z" fill="#419a1f"/>
        </g>
      </g>
      <g id="How-3" data-name="How" transform="translate(-9 98)">
        <g transform="matrix(1, 0, 0, 1, 1454, -7901)" filter="url(#Rectangle-3)">
          <path id="Rectangle-6" data-name="Rectangle" d="M144,0h0A144,144,0,0,1,288,144V328a32,32,0,0,1-32,32H32A32,32,0,0,1,0,328V144A144,144,0,0,1,144,0Z" transform="translate(-1454 7901)" fill="#feffff"/>
        </g>
        <text id="Description-2" data-name="Description" transform="translate(28 209)" fill="rgba(0,0,0,0.85)" font-size="14" font-family="SegoeUI, Segoe UI" letter-spacing="0.021em"><tspan x="11.433" y="15">In the artist&apos;s own experience, of </tspan><tspan x="27.126" y="39">course, art is fundamentally </tspan><tspan x="16.614" y="63">indefinable, unsayable; there is </tspan><tspan x="28.493" y="87">something sacred about its </tspan></text>
        <text id="Title-2" data-name="Title" transform="translate(28 171)" fill="#4ab421" font-size="18" font-family="SegoeUI, Segoe UI" letter-spacing="0.017em"><tspan x="58.763" y="19">Order via App</tspan></text>
        <g id="Group_18" data-name="Group 18">
          <g id="Ornament-5" data-name="Ornament" transform="translate(96 56)">
            <path id="Ornament-6" data-name="Ornament" d="M15.751,76.459c-16.876-15.031-26-43.588,3.189-43.943a21.534,21.534,0,0,0,17.543-9.308c7.8-11.471,9.338-27.395,33.558-22.193C128.95,29.215,77.546,119.78,15.751,76.459Z" transform="translate(0 0)" fill="#dbf1d0"/>
          </g>
        </g>
        <g id="Icon-3" data-name="Icon" transform="translate(124 56)">
          <path id="Combined_Shape-3" data-name="Combined Shape" d="M6.666,66.666A6.674,6.674,0,0,1,0,60V6.666A6.674,6.674,0,0,1,6.666,0H33.333A6.674,6.674,0,0,1,40,6.666V60a6.674,6.674,0,0,1-6.666,6.666Zm0-6.666H33.339L33.333,6.666H6.666Zm0-3.333V50H33.333v6.666ZM13.332,20V13.332H26.667V20Z" fill="#419a1f"/>
        </g>
      </g>
    </g>
  </g>
</svg>
