<svg xmlns="http://www.w3.org/2000/svg" xmlns:xlink="http://www.w3.org/1999/xlink" width="302" height="369" viewBox="0 0 302 369">
  <defs>
    <filter id="Rectangle" x="-2" y="-4" width="306" height="378" filterUnits="userSpaceOnUse">
      <feOffset dy="3" input="SourceAlpha"/>
      <feGaussianBlur stdDeviation="3" result="blur"/>
      <feFlood flood-opacity="0.161"/>
      <feComposite operator="in" in2="blur"/>
      <feComposite in="SourceGraphic"/>
    </filter>
    <clipPath id="clip-Add_to_Cart_1">
      <rect width="302" height="369"/>
    </clipPath>
  </defs>
  <g id="Add_to_Cart_1" data-name="Add to Cart – 1" clip-path="url(#clip-Add_to_Cart_1)">
    <rect width="302" height="369" fill="#fff"/>
    <g id="How" transform="translate(7 2)">
      <g transform="matrix(1, 0, 0, 1, -7, -2)" filter="url(#Rectangle)">
        <path id="Rectangle-2" data-name="Rectangle" d="M144,0h0A144,144,0,0,1,288,144V328a32,32,0,0,1-32,32H32A32,32,0,0,1,0,328V144A144,144,0,0,1,144,0Z" transform="translate(7 2)" fill="#feffff"/>
      </g>
      <g id="Ornament" transform="translate(96 56)">
        <path id="Ornament-2" data-name="Ornament" d="M15.751,76.459c-16.876-15.031-26-43.588,3.189-43.943a21.534,21.534,0,0,0,17.543-9.308c7.8-11.471,9.338-27.395,33.558-22.193C128.95,29.215,77.546,119.78,15.751,76.459Z" transform="translate(0 0)" fill="#dbf1d0"/>
      </g>
      <g id="Icon" transform="translate(124 46.667)">
        <path id="Combined_Shape" data-name="Combined Shape" d="M6.666,66.666A6.674,6.674,0,0,1,0,60V6.666A6.674,6.674,0,0,1,6.666,0H33.333A6.674,6.674,0,0,1,40,6.666V60a6.674,6.674,0,0,1-6.666,6.666Zm0-6.666H33.339L33.333,6.666H6.666Zm0-3.333V50H33.333v6.666ZM13.332,20V13.332H26.667V20Z" fill="#419a1f"/>
      </g>
    </g>
  </g>
</svg>
