<svg xmlns="http://www.w3.org/2000/svg" xmlns:xlink="http://www.w3.org/1999/xlink" width="1440" height="1010" viewBox="0 0 1440 1010">
  <defs>
    <clipPath id="clip-Add_to_Cart_1">
      <rect width="1440" height="1010"/>
    </clipPath>
  </defs>
  <g id="Add_to_Cart_1" data-name="Add to Cart – 1" clip-path="url(#clip-Add_to_Cart_1)">
    <rect width="1440" height="1010" fill="#f6f5f5"/>
    <g id="Dot" transform="translate(-434 -34)">
      <g id="Dot-2" data-name="Dot">
        <g id="Ellipse_4_copy_4" data-name="Ellipse 4 copy 4" transform="translate(885 141)" fill="none" stroke="#739f74" stroke-linejoin="round" stroke-width="2">
          <circle cx="17.5" cy="17.5" r="17.5" stroke="none"/>
          <circle cx="17.5" cy="17.5" r="16.5" fill="none"/>
        </g>
        <g id="Ellipse_4_copy_5" data-name="Ellipse 4 copy 5" transform="translate(858 144)" fill="none" stroke="#739f74" stroke-linejoin="round" stroke-width="2">
          <circle cx="9.5" cy="9.5" r="9.5" stroke="none"/>
          <circle cx="9.5" cy="9.5" r="8.5" fill="none"/>
        </g>
        <g id="Ellipse_4_copy_6" data-name="Ellipse 4 copy 6" transform="translate(900 185)" fill="none" stroke="#739f74" stroke-linejoin="round" stroke-width="2">
          <circle cx="9.5" cy="9.5" r="9.5" stroke="none"/>
          <circle cx="9.5" cy="9.5" r="8.5" fill="none"/>
        </g>
      </g>
      <g id="Dot-3" data-name="Dot">
        <g id="Ellipse_4_copy_7" data-name="Ellipse 4 copy 7" transform="translate(288 868)" fill="none" stroke="#739f74" stroke-linejoin="round" stroke-width="2">
          <circle cx="17.5" cy="17.5" r="17.5" stroke="none"/>
          <circle cx="17.5" cy="17.5" r="16.5" fill="none"/>
        </g>
        <g id="Ellipse_4_copy_7-2" data-name="Ellipse 4 copy 7" transform="translate(295 912)" fill="none" stroke="#739f74" stroke-linejoin="round" stroke-width="2">
          <circle cx="9.5" cy="9.5" r="9.5" stroke="none"/>
          <circle cx="9.5" cy="9.5" r="8.5" fill="none"/>
        </g>
      </g>
    </g>
    <path id="Rectangle_1" data-name="Rectangle 1" d="M0,0H937V1084H0Z" transform="translate(585)" fill="#3fc66e" opacity="0.1"/>
    <g id="Ellipse" transform="translate(-396 -90)">
      <circle id="Ellipse_3" data-name="Ellipse 3" cx="424.5" cy="424.5" r="424.5" transform="translate(1237 172)" fill="#fff"/>
      <circle id="Ellipse_3_copy" data-name="Ellipse 3 copy" cx="297" cy="297" r="297" transform="translate(1364 294)" fill="#f6f5f5"/>
      <g id="Ellipse_4_copy_3" data-name="Ellipse 4 copy 3" transform="translate(813 927)" fill="none" stroke="#739f74" stroke-linejoin="round" stroke-width="2">
        <circle cx="165.5" cy="165.5" r="165.5" stroke="none"/>
        <circle cx="165.5" cy="165.5" r="164.5" fill="none"/>
      </g>
    </g>
  </g>
</svg>
